<?xml version="1.0" encoding="UTF-8"?>
<svg id="Calque_2" xmlns="http://www.w3.org/2000/svg" viewBox="0 0 165.08 128.33">
  <defs>
    <style>
      .cls-1 {
        fill: #1d1d1b;
      }
    </style>
  </defs>
  <g id="Calque_1-2" data-name="Calque_1">
    <g>
      <path d="M81.79,103.11c-.09,7.73-7.92,8.57-12.84,7.76-6.48-1.07-13.02-6.12-14.37-13.17-2.1-11,10.31-18.11,12.37-27.46,1.14-5.19-2.92-4.88-6.7-4.46-9.56.85-21.72,2.1-26.29,12.02-1.1,3.84.83,7.37,5.87,11.02,4.68,3.39,6.44,5.73,6.85,8.16.22,1.32-.5,1.63-1.69,1.59-2.29-.25-10.05,0-13.4,1.76-6.39,3.34-12.81,3.21-16.88-1.15-8.23-8.18-8.58-20.06.56-27.59,6.35-5.24,14.77-11.68,22.18-15.28,8.08-3.93,9.64-13.18,14.65-18.18,8.35-8.43,6.7-11.21-2.43-5.46-8.14,5.12-14.65,15.25-19.72,23.54-8.75,11.96-15.33.32-11.46-8.2,2.65-5.84,9.65-9.22,15.97-11.4,5.91-2.04,7.41-4.16,13.22-6.65,6.36-2.73,13.89-2.61,23.92-4.57,9.13-1.79,10.75-1.74,6.01,11.29-3.8,10.46-5.39,18.96-5.14,28.95.3,11.92,9.47,24.73,9.32,37.49ZM41.41,58.92c-2.05,1.97-3.06,4.96.12,4.9,2.39-.05,9.78-.2,15.08-.65,5.34-.45,9.57-2.22,12.38-5.14.91-5.43,8.61-35.85-7.54-19.37-9.34,5.09-10.59,15.5-20.03,20.26Z"/>
      <path d="M108.71,114.95c-5.8-1.63-8.82-3.74-14.51-4.36-8.86-.96-10.89-2.72-10-15.15.69-9.74-6.65-18.75-7.63-27.61-1.42-12.87,1.1-25.78,5.18-38.91,2.01-6.48,6.19-10.69,9.7-13.13,4.16-2.9,10.32-6.08,16.69-7.44,2.64-.56,6.78-1.42,11.08-1.67,13.8-.81,25.24,13.54,20.65,26.6-3.9,11.08-4.92,22.7-18.07,27.11-.91.49-.86.92.62,1.13,8.94,1.05,18.62,8.72,23.6,15.83,5.05,8.07,13.79,19.69,8.12,29.73-2.6,4.6-9.07,9-17.1,10.95-3.35.81-9.12,1.94-12.1,1.59-4.1-.49-3.4-4.41-.37-13.78,3.66-11.29,7.24-27.16,1.45-35.86-3.92-5.88-21.1-7.89-29.25-6.58-2.67.68-4,2.29-1.75,5.73,7.92,11.77,15.03,23.37,19.96,36.74,1.44,4.81-1.39,10.46-6.26,9.09ZM123.19,23.43c7.6-14.27-.4-15.56-7.24-10.34-10.86,8.3-26.74,23.71-27.53,36.74-.71,11.65.37,11.36,8.73,7.85,11.17-4.68,20.86-24.52,26.04-34.26Z"/>
    </g>
    <path class="cls-1" d="M121.69,3c1.75,0,3.53.02,5.36.05,3.42.05,6.92.37,9.99,1.88,5.34,2.62,8.73,17.95,9.4,23.86s-1.36,12.29-3.18,17.95c-1.63,5.05-8.8,8.64-6.49,13.41,1.37,2.82,3.98,4.78,6.32,6.86,12.63,11.24,21.4,15.83,18.42,32.47-.92,5.13-2.72,10.23-6.12,14.17-6.07,7.03-15.94,9.14-25.11,10.61-3.51.56-7.17,1.06-10.74,1.06-4,0-7.91-.63-11.42-2.52-2.98-1.61-5.46-4.03-8.41-5.69-3.37-1.9-6.62-2.53-9.83-2.53-6.18,0-12.24,2.32-18.87,2.32-2.34,0-4.74-.29-7.25-1.07-10.11-3.14-17.35-12.1-26.66-12.1-1.26,0-2.56.16-3.92.53-4.28,1.16-9.37,3.75-13.19,5.54-.74.35-1.43.5-2.08.5-2.7,0-4.78-2.6-7.52-4.62-2.02-1.48-3.13-3.87-4.16-6.15-3.09-6.85-3.38-13.33-3.17-20.84.21-7.51,4.87-12.11,12.25-13.51-2.02-10.61-3.96-17.22,1.05-23.33,5.19-6.33,11.52-6.17,18.28-9.23,6.42-2.9,8.3-8.02,15.64-9.19,7.08-1.13,13.64-1.39,20.64-2.95,7.37-1.65,13.43-6.67,19.88-10.57,9.95-6.02,19.73-6.92,30.9-6.92M121.69,0c-12.53,0-22.33,1.23-32.45,7.35-1.63.99-3.24,2.04-4.79,3.06-4.72,3.1-9.17,6.02-14.2,7.15-4.1.92-8.02,1.37-12.18,1.84-2.67.31-5.43.62-8.27,1.08-5.12.82-8.11,3.33-10.75,5.55-1.74,1.46-3.37,2.84-5.66,3.87-1.93.87-3.9,1.48-5.81,2.08-4.63,1.44-9.41,2.92-13.56,7.98-5.44,6.63-4.02,13.84-2.22,22.97,0,.02,0,.04.01.05C4.51,65.34.27,70.91.06,78.61c-.19,6.93-.09,14.34,3.44,22.15,1.07,2.38,2.41,5.34,5.11,7.33.65.48,1.29,1.02,1.92,1.55,2.01,1.71,4.3,3.65,7.38,3.65,1.12,0,2.24-.26,3.35-.78.61-.29,1.26-.59,1.93-.91,3.32-1.58,7.44-3.54,10.78-4.45,1.06-.29,2.08-.43,3.13-.43,4.47,0,8.56,2.59,13.3,5.59,3.82,2.42,7.78,4.92,12.47,6.38,2.6.81,5.26,1.2,8.14,1.2,3.65,0,7.04-.63,10.32-1.24,2.98-.55,5.79-1.08,8.55-1.08,3.11,0,5.76.68,8.36,2.14,1.26.71,2.46,1.6,3.73,2.55,1.47,1.1,2.99,2.23,4.73,3.17,3.6,1.94,7.8,2.88,12.84,2.88,3.79,0,7.63-.53,11.21-1.1,9.47-1.51,20.15-3.78,26.91-11.61,3.36-3.89,5.65-9.14,6.81-15.6,2.89-16.14-4.47-22.44-14.66-31.15-1.51-1.29-3.08-2.63-4.72-4.09-.38-.34-.76-.67-1.15-1.01-1.84-1.6-3.59-3.1-4.47-4.92-.47-.96.25-2.08,2.5-4.72,1.56-1.83,3.32-3.9,4.15-6.45,1.81-5.61,4.06-12.58,3.31-19.21-.02-.22-2.72-22.13-11.05-26.22-3.73-1.83-7.79-2.13-11.27-2.19-1.63-.02-3.54-.05-5.4-.05h0Z"/>
  </g>
</svg>